<?xml version="1.0" standalone="no"?><!DOCTYPE svg PUBLIC "-//W3C//DTD SVG 1.1//EN" "http://www.w3.org/Graphics/SVG/1.1/DTD/svg11.dtd"><svg t="1558860313414" class="icon" style="" viewBox="0 0 1024 1024" version="1.1" xmlns="http://www.w3.org/2000/svg" p-id="24728" xmlns:xlink="http://www.w3.org/1999/xlink" width="200" height="200"><defs><style type="text/css"></style></defs><path d="M0 512.512C0 794.978462 229.021538 1024 511.488 1024c282.505846 0 511.527385-229.021538 511.527385-511.488C1023.015385 230.006154 793.993846 0.984615 511.488 0.984615 229.021538 0.984615 0 230.006154 0 512.512z" fill="#52CDFB" p-id="24729"></path><path d="M718.532923 510.424615c10.633846 14.099692 20.676923 31.350154 28.553846 50.412308 23.315692 55.571692 14.336 113.821538 1.811693 116.499692-10.476308 1.851077-30.72-15.832615-50.491077-43.086769-4.174769 30.129231-18.668308 57.580308-40.52677 79.950769 37.021538 11.815385 61.715692 34.422154 58.840616 56.950154-3.623385 28.475077-49.939692 46.040615-103.424 39.187693-37.966769-4.844308-69.316923-20.637538-83.062154-39.581539a226.619077 226.619077 0 0 1-26.584615 0.393846c-13.272615 19.298462-46.001231 35.091692-86.212924 39.660308-55.532308 6.262154-103.030154-11.657846-107.52-40.329846-3.544615-21.937231 21.464615-43.835077 59.47077-55.650462-22.961231-23.158154-37.927385-51.948308-41.55077-83.495384-22.449231 27.175385-45.174154 41.905231-53.720615 37.021538-17.014154-8.940308-20.598154-64.472615 6.301539-119.138461 10.161231-20.046769 22.528-37.415385 35.131076-50.884924a60.455385 60.455385 0 0 1-5.592615-26.151384c0-15.044923 4.923077-28.947692 12.996923-36.470154a25.206154 25.206154 0 0 1 1.890462-1.614769 190.424615 190.424615 0 0 1-2.363077-29.971693c0-105.708308 86.882462-191.724308 193.496615-191.724307 107.52 0 193.496615 86.016 193.496616 191.724307 0 8.782769-0.590769 17.447385-1.772308 25.954462 4.489846 0 8.940308 1.890462 12.996923 5.632 7.995077 7.522462 12.957538 21.425231 12.957538 36.470154s-4.962462 28.947692-12.996923 36.470154a25.009231 25.009231 0 0 1-2.126769 1.772307z" fill="#FFFFFF" p-id="24730"></path></svg>